<svg xmlns="http://www.w3.org/2000/svg" xmlns:xlink="http://www.w3.org/1999/xlink" viewBox="0 0 81 81" fill="white" fill-rule="evenodd"><use xlink:href="#A" x=".5" y=".5"/><symbol id="A" overflow="visible"><path d="M50.23 63.935c3.268 1.36 4.79 5.062 3.402 8.266s-5.164 4.697-8.43 3.335-4.79-5.062-3.402-8.266 5.164-4.696 8.432-3.335c-3.268-1.362-4.79-5.062-3.402-8.266s5.164-4.696 8.432-3.335 4.79 5.062 3.402 8.266-5.164 4.696-8.43 3.335zm-8.893-3.886c2.83 0 5.13-2.253 5.13-5.03 0-.784-.2-1.535-.533-2.188H57.9l10.46 17.796H11.625l10.492-17.796H36.74c-.333.653-.533 1.404-.533 2.188 0 2.775 2.298 5.03 5.13 5.03zm37.472 11.33L53.393 28.245v-17.47h.466c3.03 0 5.496-2.416 5.496-5.388S56.9 0 53.86 0H26.147c-3.064 0-5.496 2.416-5.496 5.388s2.432 5.388 5.496 5.388h.433v17.47L1.2 71.38C-1.6 76.114.666 80 6.262 80h67.482c5.563 0 7.86-3.886 5.063-8.62z" fill="#0078d7"/></symbol></svg>